<svg xmlns="http://www.w3.org/2000/svg" fill="none" viewBox="0 0 100 100" height="100" width="100">
  <path fill="#000000" fill-rule="evenodd" d="M50 99C22.936666666666664 99 1 77.06333333333333 1 50S22.936666666666664 1 50 1 99 22.936666666666664 99 50 77.06333333333333 99 50 99Zm22.016363636363636 -55.06363636363636c0.9615151515151515 -6.419090909090909 -3.929393939393939 -9.87060606060606 -10.611515151515151 -12.173636363636362l2.1681818181818184 -8.697272727272727 -5.292121212121212 -1.316969696969697 -2.1130303030303033 8.467878787878789c-1.3903030303030302 -0.34909090909090906 -2.8175757575757574 -0.6739393939393938 -4.241515151515151 -0.9984848484848485l2.1281818181818184 -8.523030303030303 -5.291818181818182 -1.3196969696969696 -2.1681818181818184 8.694242424242423c-1.1515151515151516 -0.26333333333333336 -2.2845454545454547 -0.5206060606060606 -3.3809090909090904 -0.796060606060606l0.006060606060606061 -0.027575757575757576 -7.301212121212122 -1.8224242424242425 -1.4084848484848485 5.653333333333333s3.929090909090909 0.9006060606060606 3.8463636363636367 0.9557575757575758c2.1436363636363636 0.5357575757575758 2.5296969696969698 1.9536363636363638 2.4654545454545453 3.0806060606060606l-2.4684848484848483 9.907272727272728c0.14696969696969697 0.03666666666666667 0.3369696969696969 0.09181818181818181 0.5512121212121213 0.17454545454545453l-0.5603030303030303 -0.13787878787878788 -3.4606060606060605 13.879393939393939c-0.2636363636363636 0.649090909090909 -0.9281818181818182 1.626060606060606 -2.4287878787878787 1.2557575757575756 0.05515151515151515 0.07636363636363637 -3.8463636363636367 -0.9587878787878789 -3.8463636363636367 -0.9587878787878789l-2.6275757575757575 6.057575757575758 6.89060606060606 1.718181818181818c1.28 0.32151515151515153 2.5357575757575757 0.6584848484848485 3.77 0.973939393939394l-2.18969696969697 8.795454545454545 5.288787878787879 1.316969696969697 2.1681818181818184 -8.697575757575757c1.4454545454545453 0.38909090909090904 2.848181818181818 0.7503030303030302 4.220303030303031 1.0933333333333333l-2.162121212121212 8.66060606060606 5.291818181818182 1.316969696969697 2.18969696969697 -8.776969696969697c9.028181818181817 1.7087878787878787 15.814848484848484 1.0196969696969698 18.672121212121212 -7.1448484848484854 2.303030303030303 -6.572121212121212 -0.11333333333333334 -10.366666666666665 -4.863333333333333 -12.838181818181818 3.4606060606060605 -0.796060606060606 6.063939393939394 -3.0715151515151518 6.75909090909091 -7.7724242424242425Zm-12.096969696969698 16.96c-1.6324242424242423 6.575151515151515 -12.703333333333333 3.01969696969697 -16.292424242424243 2.1284848484848484l2.909393939393939 -11.652727272727272c3.589090909090909 0.8972727272727272 15.094848484848486 2.6703030303030304 13.383030303030305 9.524242424242424Zm1.6384848484848484 -17.055151515151515c-1.4915151515151517 5.981212121212121 -10.703333333333333 2.94 -13.68939393939394 2.1960606060606063l2.6336363636363638 -10.565757575757575c2.9860606060606063 0.7442424242424243 12.611515151515153 2.1315151515151514 11.055757575757577 8.36969696969697Z" clip-rule="evenodd" stroke-width="3.0303"></path>
</svg>
