<svg xmlns="http://www.w3.org/2000/svg" viewBox="0 0 100 100">
    <path d="M50 99C22.94 99 1 77.06 1 50S22.94 1 50 1 99 22.94 99 50 77.06 99 50 99Zm22.02-55.06c.96-6.42-3.93-9.87-10.61-12.17l2.17-8.7-5.29-1.32-2.11 8.47c-1.39-.35-2.82-.67-4.24-1l2.13-8.52-5.29-1.32-2.17 8.69c-1.15-.26-2.28-.52-3.38-.8l.01-.03-7.3-1.82-1.41 5.65s3.93.9 3.85.96c2.14.54 2.53 1.95 2.47 3.08l-2.47 9.91c.15.04.34.09.55.17l-.56-.14-3.46 13.88c-.26.65-.93 1.63-2.43 1.26.05.08-3.85-.96-3.85-.96l-2.63 6.06 6.89 1.72c1.28.32 2.54.66 3.77.97l-2.19 8.8 5.29 1.32 2.17-8.7c1.45.39 2.85.75 4.22 1.09l-2.16 8.66 5.29 1.32 2.19-8.78c9.03 1.71 15.81 1.02 18.67-7.14 2.3-6.57-.11-10.37-4.86-12.84 3.46-.8 6.06-3.07 6.76-7.77Zm-12.1 16.96c-1.63 6.58-12.7 3.02-16.29 2.13l2.91-11.65c3.59.9 15.09 2.67 13.38 9.52Zm1.64-17.06c-1.49 5.98-10.7 2.94-13.69 2.2l2.63-10.57c2.99.74 12.61 2.13 11.06 8.37Z" fill="#000000"/>
</svg>
